<?xml version="1.0" encoding="utf-8"?>
<!-- Generator: Adobe Illustrator 25.4.1, SVG Export Plug-In . SVG Version: 6.00 Build 0)  -->
<svg version="1.1" id="Layer_1" xmlns="http://www.w3.org/2000/svg" xmlns:xlink="http://www.w3.org/1999/xlink" x="0px" y="0px"
	 viewBox="0 0 1366 768" style="enable-background:new 0 0 1366 768;" xml:space="preserve">
<style type="text/css">
	.st0{fill:#F7F7F7;}
	.st1{fill:#00A693;}
	.st2{clip-path:url(#SVGID_00000061449371988449899560000006666197693168474297_);}
	.st3{fill:#EBEBEB;}
	.st4{fill:#C7C7C7;}
	.st5{fill:#DBDBDB;}
	.st6{fill:#FFFFFF;}
	.st7{fill:#263238;}
	.st8{opacity:0.2;enable-background:new    ;}
	.st9{fill:#A6A6A6;}
	.st10{opacity:0.2;}
	.st11{fill:#616173;}
</style>
<rect class="st0" width="1366" height="768"/>
<g>
	<path class="st1" d="M335,525.6h7.2l3.4,20c0.6,4.2,1.3,8.4,2,12.7h0.2c0.8-4.2,1.7-8.5,2.6-12.7l4.9-20h6.1l4.9,20
		c0.9,4.1,1.7,8.4,2.6,12.7h0.2c0.6-4.3,1.3-8.5,1.9-12.7l3.4-20h6.7l-7.6,39.6H365l-4.9-20.9c-0.7-3.1-1.2-6.1-1.7-9.1h-0.2
		c-0.5,3-1.1,6-1.8,9.1l-4.8,20.9h-8.6L335,525.6z"/>
	<path class="st1" d="M384.9,550.4c0-9.7,6.7-15.6,13.7-15.6c8.1,0,12.3,5.8,12.3,14.1c0,1.3-0.1,2.7-0.3,3.4h-18.9
		c0.6,5.3,4,8.3,8.8,8.3c2.5,0,4.7-0.8,6.9-2.2l2.4,4.3c-2.8,1.9-6.4,3.2-10.2,3.2C391.3,566,384.9,560.2,384.9,550.4z M404.9,547.5
		c0-4.6-2-7.4-6.1-7.4c-3.5,0-6.5,2.6-7.1,7.4H404.9z"/>
	<path class="st1" d="M428.1,557.2c0-6.4,5.3-9.7,17.5-11c-0.1-3.2-1.4-5.9-5.4-5.9c-3,0-5.7,1.3-8.4,2.9l-2.6-4.7
		c3.3-2.1,7.5-3.9,12.2-3.9c7.4,0,11.1,4.6,11.1,12.9v17.6h-5.7l-0.5-3.3h-0.2c-2.7,2.3-5.7,4-9.2,4
		C431.7,566,428.1,562.4,428.1,557.2z M445.6,557.3v-6.7c-8.1,1-10.8,3.1-10.8,6.1c0,2.6,1.8,3.8,4.3,3.8
		C441.6,560.5,443.4,559.3,445.6,557.3z"/>
	<path class="st1" d="M461,535.5h5.7l0.5,5.3h0.2c2.1-3.9,5.3-6,8.5-6c1.5,0,2.5,0.2,3.4,0.6l-1.2,6.1c-1-0.3-1.8-0.5-3.1-0.5
		c-2.4,0-5.2,1.6-7,6.2v18.2h-7V535.5z"/>
	<path class="st1" d="M481,550.4c0-9.7,6.7-15.6,13.7-15.6c8.1,0,12.3,5.8,12.3,14.1c0,1.3-0.1,2.7-0.3,3.4h-18.9
		c0.6,5.3,4,8.3,8.8,8.3c2.5,0,4.7-0.8,6.9-2.2l2.4,4.3c-2.8,1.9-6.4,3.2-10.2,3.2C487.5,566,481,560.2,481,550.4z M501,547.5
		c0-4.6-2-7.4-6.1-7.4c-3.5,0-6.5,2.6-7.1,7.4H501z"/>
	<path class="st1" d="M525.5,554.1v-18.7h7v17.8c0,4.9,1.4,6.7,4.6,6.7c2.6,0,4.3-1.2,6.6-4.1v-20.4h7v29.8H545l-0.5-4.4h-0.2
		c-2.6,3.1-5.5,5.1-9.6,5.1C528.3,566,525.5,561.7,525.5,554.1z"/>
	<path class="st1" d="M559.5,535.5h5.7l0.5,4h0.2c2.7-2.6,5.7-4.8,9.8-4.8c6.4,0,9.2,4.3,9.2,11.8v18.7h-7v-17.8
		c0-4.9-1.4-6.7-4.6-6.7c-2.6,0-4.3,1.3-6.8,3.7v20.8h-7V535.5z"/>
	<path class="st1" d="M591.7,550.4c0-9.7,6.1-15.6,12.6-15.6c3.4,0,5.5,1.3,7.8,3.3l-0.3-4.8v-10.8h7v42.8h-5.7l-0.5-3.2h-0.2
		c-2.2,2.2-5.3,4-8.5,4C596.5,566,591.7,560.2,591.7,550.4z M611.8,556.9V543c-2-1.8-4-2.5-6.1-2.5c-3.8,0-6.9,3.6-6.9,9.8
		c0,6.5,2.5,9.9,6.8,9.9C607.9,560.2,609.9,559.2,611.8,556.9z"/>
	<path class="st1" d="M625.7,550.4c0-9.7,6.7-15.6,13.7-15.6c8.1,0,12.3,5.8,12.3,14.1c0,1.3-0.1,2.7-0.3,3.4h-18.9
		c0.6,5.3,4,8.3,8.8,8.3c2.5,0,4.7-0.8,6.9-2.2l2.4,4.3c-2.8,1.9-6.4,3.2-10.2,3.2C632.2,566,625.7,560.2,625.7,550.4z M645.7,547.5
		c0-4.6-2-7.4-6.1-7.4c-3.5,0-6.5,2.6-7.1,7.4H645.7z"/>
	<path class="st1" d="M658.4,535.5h5.7l0.5,5.3h0.2c2.1-3.9,5.3-6,8.5-6c1.5,0,2.5,0.2,3.4,0.6l-1.2,6.1c-1-0.3-1.8-0.5-3.1-0.5
		c-2.4,0-5.2,1.6-7,6.2v18.2h-7V535.5z"/>
	<path class="st1" d="M693.1,535.5h5.7l0.5,4.1h0.2c2.5-2.6,5.4-4.8,9.1-4.8c4.4,0,6.8,2,8.2,5.3c2.8-3,5.8-5.3,9.6-5.3
		c6.3,0,9.2,4.3,9.2,11.8v18.7h-7v-17.8c0-4.9-1.5-6.7-4.6-6.7c-1.9,0-3.9,1.2-6.2,3.7v20.8h-7v-17.8c0-4.9-1.5-6.7-4.6-6.7
		c-1.8,0-3.9,1.2-6.2,3.7v20.8h-7V535.5z"/>
	<path class="st1" d="M742.6,557.2c0-6.4,5.3-9.7,17.5-11c-0.1-3.2-1.4-5.9-5.4-5.9c-3,0-5.7,1.3-8.4,2.9l-2.6-4.7
		c3.3-2.1,7.5-3.9,12.2-3.9c7.4,0,11.1,4.6,11.1,12.9v17.6h-5.7l-0.5-3.3h-0.2c-2.7,2.3-5.7,4-9.2,4
		C746.2,566,742.6,562.4,742.6,557.2z M760.1,557.3v-6.7c-8.1,1-10.8,3.1-10.8,6.1c0,2.6,1.8,3.8,4.3,3.8
		C756.1,560.5,757.9,559.3,760.1,557.3z"/>
	<path class="st1" d="M774.7,526.3c0-2.4,1.8-4,4.3-4c2.5,0,4.3,1.6,4.3,4c0,2.3-1.8,4-4.3,4C776.6,530.3,774.7,528.6,774.7,526.3z
		 M775.5,535.5h7v29.8h-7V535.5z"/>
	<path class="st1" d="M791.4,535.5h5.7l0.5,4h0.2c2.7-2.6,5.7-4.8,9.8-4.8c6.4,0,9.2,4.3,9.2,11.8v18.7h-7v-17.8
		c0-4.9-1.4-6.7-4.6-6.7c-2.6,0-4.3,1.3-6.8,3.7v20.8h-7V535.5z"/>
	<path class="st1" d="M826.4,555.2V541h-4.2v-5.2l4.6-0.3l0.8-8.1h5.8v8.1h7.6v5.6h-7.6v14.2c0,3.5,1.4,5.2,4.2,5.2
		c1,0,2.2-0.3,3.1-0.7l1.2,5.1c-1.6,0.5-3.7,1.1-6.1,1.1C828.9,566,826.4,561.6,826.4,555.2z"/>
	<path class="st1" d="M844.6,550.4c0-9.7,6.7-15.6,13.7-15.6c8.1,0,12.3,5.8,12.3,14.1c0,1.3-0.1,2.7-0.3,3.4h-18.9
		c0.6,5.3,4,8.3,8.8,8.3c2.5,0,4.7-0.8,6.9-2.2l2.4,4.3c-2.8,1.9-6.4,3.2-10.2,3.2C851.1,566,844.6,560.2,844.6,550.4z M864.6,547.5
		c0-4.6-2-7.4-6.1-7.4c-3.5,0-6.5,2.6-7.1,7.4H864.6z"/>
	<path class="st1" d="M877.3,535.5h5.7l0.5,4h0.2c2.7-2.6,5.7-4.8,9.8-4.8c6.4,0,9.2,4.3,9.2,11.8v18.7h-7v-17.8
		c0-4.9-1.4-6.7-4.6-6.7c-2.6,0-4.3,1.3-6.8,3.7v20.8h-7V535.5z"/>
	<path class="st1" d="M909.7,557.2c0-6.4,5.3-9.7,17.5-11c-0.1-3.2-1.4-5.9-5.4-5.9c-3,0-5.7,1.3-8.4,2.9l-2.6-4.7
		c3.3-2.1,7.5-3.9,12.2-3.9c7.4,0,11.1,4.6,11.1,12.9v17.6h-5.7l-0.5-3.3h-0.2c-2.7,2.3-5.7,4-9.2,4
		C913.3,566,909.7,562.4,909.7,557.2z M927.2,557.3v-6.7c-8.1,1-10.8,3.1-10.8,6.1c0,2.6,1.8,3.8,4.3,3.8
		C923.1,560.5,925,559.3,927.2,557.3z"/>
	<path class="st1" d="M942.6,535.5h5.7l0.5,4h0.2c2.7-2.6,5.7-4.8,9.8-4.8c6.4,0,9.2,4.3,9.2,11.8v18.7h-7v-17.8
		c0-4.9-1.4-6.7-4.6-6.7c-2.6,0-4.3,1.3-6.8,3.7v20.8h-7V535.5z"/>
	<path class="st1" d="M974.5,550.4c0-9.9,7-15.6,14.9-15.6c3.8,0,6.5,1.5,8.7,3.3l-3.4,4.5c-1.6-1.4-3.1-2.2-4.9-2.2
		c-4.8,0-8.1,4-8.1,9.9s3.3,9.9,7.9,9.9c2.3,0,4.5-1.1,6.2-2.6l2.8,4.6c-2.8,2.5-6.3,3.7-9.7,3.7C980.8,566,974.5,560.3,974.5,550.4
		z"/>
	<path class="st1" d="M1001.6,550.4c0-9.7,6.7-15.6,13.7-15.6c8.1,0,12.3,5.8,12.3,14.1c0,1.3-0.1,2.7-0.3,3.4h-18.9
		c0.6,5.3,4,8.3,8.8,8.3c2.5,0,4.7-0.8,6.9-2.2l2.4,4.3c-2.8,1.9-6.4,3.2-10.2,3.2C1008,566,1001.6,560.2,1001.6,550.4z
		 M1021.6,547.5c0-4.6-2-7.4-6.1-7.4c-3.5,0-6.5,2.6-7.1,7.4H1021.6z"/>
</g>
<g>
	<defs>
		<rect id="SVGID_1_" x="439" y="94" width="499.5" height="392.2"/>
	</defs>
	<clipPath id="SVGID_00000168799305258547410930000012589502406744840064_">
		<use xlink:href="#SVGID_1_"  style="overflow:visible;"/>
	</clipPath>
	<g style="clip-path:url(#SVGID_00000168799305258547410930000012589502406744840064_);">
		<path class="st3" d="M652.7,337.6l-0.9,5.6l-1,6l-9,55.2h-14.7l9-55.2l1-6l0.9-5.6H652.7z"/>
		<path class="st4" d="M650.5,337.6c-0.8,5.6-1.6,11.2-2.5,16.8l-2.6,16.7l-2.7,16.7l-1.4,8.3l-1.5,8.3l1.2-8.4l1.2-8.4L645,371
			l2.7-16.7C648.6,348.7,649.5,343.2,650.5,337.6z"/>
		<path class="st4" d="M651.8,343.2l-1,6h-14.7l1-6H651.8z"/>
		<path class="st3" d="M725.3,337.6l0.9,5.6l1,6l9,55.2h14.7l-9-55.2l-1-6l-0.9-5.6H725.3z"/>
		<path class="st4" d="M727.5,337.6c0.8,5.6,1.6,11.2,2.5,16.8l2.6,16.7l2.7,16.7l1.4,8.3l1.5,8.3l-1.2-8.4l-1.2-8.4l-2.6-16.7
			l-2.7-16.7C729.4,348.7,728.5,343.2,727.5,337.6z"/>
		<path class="st4" d="M726.2,343.2H741l1,6h-14.7L726.2,343.2z"/>
		<path class="st4" d="M652.1,322.1h-11.7l1.5-10.9h8.8L652.1,322.1z"/>
		<path class="st5" d="M657,305.3c1-5.9-2.9-11.6-8.8-12.6c-5.9-1-11.5,2.9-12.6,8.8c-1,5.9,2.9,11.6,8.8,12.6
			C650.3,315.2,656,311.3,657,305.3z"/>
		<path class="st6" d="M654.4,305.4c1.1-4.4-1.7-8.9-6.1-10c-4.4-1.1-8.9,1.7-10,6.1c-1.1,4.4,1.7,8.9,6.1,10
			C648.9,312.6,653.3,309.8,654.4,305.4z"/>
		<path class="st3" d="M653.2,303c-0.1-2-1.2-3.9-2.7-5.1c-1.5-1.2-3.6-1.8-5.6-1.5c-1.9,0.3-3.7,1.4-4.8,3.1
			c-1.1,1.7-1.5,3.9-0.9,6c0.5,1.7,1.7,3.2,3.2,4.1c1.5,0.9,3.4,1.2,5.1,0.8c1.7-0.4,3.2-1.3,4.2-2.6c1-1.3,1.7-2.9,1.8-4.6
			c0-0.1,0-0.1-0.1-0.1c0,0-0.1,0.1-0.1,0.1c0,0.7-0.2,1.4-0.4,2c-0.2,0.6-0.5,1.2-0.9,1.8c-0.4,0.6-0.8,1-1.4,1.5
			c-0.5,0.4-1.1,0.8-1.7,1.1c-1.8,0.8-3.8,0.9-5.6,0.1c-1.8-0.8-3.2-2.3-3.8-4.2c-0.6-2-0.3-4.1,0.7-5.8c1-1.7,2.8-2.8,4.6-3.1
			c2.6-0.4,5.2,0.6,6.9,2.7c0.4,0.5,0.7,1.1,0.9,1.7C653,301.7,653.1,302.4,653.2,303C653.2,303,653.2,303,653.2,303
			C653.2,303,653.2,303,653.2,303z"/>
		<path class="st3" d="M652.2,303c-0.2-1.7-1-3.3-2.3-4.3c-1.3-1-3-1.5-4.8-1.3c-1.7,0.2-3.2,1.2-4.1,2.6c-1,1.4-1.3,3.3-0.8,5.2
			c0.4,1.5,1.5,2.8,2.8,3.6c1.3,0.8,3,1,4.4,0.7c1.5-0.3,2.8-1.1,3.7-2.3c0.9-1.1,1.5-2.5,1.5-4c0-0.1,0-0.1-0.1-0.1
			c0,0-0.1,0.1-0.1,0.1c-0.1,2.4-1.6,4.5-3.8,5.5c-1.5,0.7-3.3,0.8-4.9,0.1c-1.6-0.6-2.8-2-3.3-3.6c-0.5-1.7-0.2-3.6,0.7-5
			c0.9-1.4,2.4-2.4,4-2.6c2.2-0.3,4.5,0.5,5.8,2.3c0.3,0.5,0.6,0.9,0.8,1.5C652,301.9,652.1,302.4,652.2,303
			C652.2,303,652.2,303,652.2,303C652.2,303,652.3,303,652.2,303z"/>
		<path class="st3" d="M651.3,303c-0.2-1.4-0.9-2.7-2-3.6c-1.1-0.8-2.5-1.2-3.9-1.1c-1.4,0.2-2.7,1-3.5,2.2
			c-0.8,1.2-1.1,2.8-0.7,4.4c0.3,1.3,1.2,2.4,2.4,3.1c1.1,0.6,2.5,0.8,3.8,0.5c1.2-0.3,2.3-1,3.1-2c0.8-1,1.2-2.1,1.3-3.4
			c0-0.1,0-0.1-0.1-0.1c0,0-0.1,0-0.1,0.1c-0.1,2-1.4,3.7-3.2,4.6c-1.3,0.6-2.8,0.7-4.1,0.1c-1.3-0.5-2.4-1.7-2.8-3.1
			c-0.4-1.5-0.2-3,0.6-4.2c0.8-1.2,2-2,3.4-2.1c0.9-0.1,1.8,0,2.7,0.3c0.8,0.3,1.6,0.9,2.2,1.6c0.3,0.4,0.5,0.8,0.7,1.2
			C651.1,302.1,651.2,302.5,651.3,303C651.2,303,651.3,303,651.3,303C651.3,303,651.3,303,651.3,303z"/>
		<path class="st3" d="M650.3,303c-0.2-1.2-0.8-2.2-1.6-2.8c-0.9-0.7-2-1-3.1-0.9c-1.1,0.1-2.2,0.7-2.8,1.7c-0.7,0.9-1,2.3-0.7,3.6
			c0.2,1.1,1,2,2,2.5c1,0.5,2.1,0.7,3.1,0.4c1-0.2,1.9-0.8,2.5-1.6c0.6-0.8,1-1.8,1-2.8c0,0,0-0.1-0.1-0.1s-0.1,0-0.1,0.1
			c-0.1,1.6-1.1,3-2.6,3.8c-1,0.5-2.3,0.6-3.4,0.2c-1.1-0.4-2-1.4-2.3-2.5c-0.3-1.2-0.1-2.5,0.5-3.4c0.6-0.9,1.7-1.5,2.7-1.6
			c0.7-0.1,1.4,0,2.1,0.3c0.7,0.2,1.3,0.7,1.7,1.2c0.2,0.3,0.4,0.6,0.6,1C650.1,302.3,650.2,302.6,650.3,303
			C650.3,303,650.3,303,650.3,303C650.3,303,650.3,303,650.3,303z"/>
		<path class="st4" d="M737.3,322.1h-11.7l1.5-10.9h8.8L737.3,322.1z"/>
		<path class="st5" d="M742.2,305.1c0.9-5.9-3.2-11.5-9.1-12.4s-11.5,3.2-12.4,9.1c-0.9,5.9,3.2,11.5,9.1,12.4
			S741.3,311,742.2,305.1z"/>
		<path class="st6" d="M739.6,304.7c0.7-4.5-2.4-8.7-6.9-9.4c-4.5-0.7-8.7,2.4-9.4,6.9c-0.7,4.5,2.4,8.7,6.9,9.4
			C734.7,312.3,738.9,309.2,739.6,304.7z"/>
		<path class="st3" d="M738.3,303c-0.1-2-1.2-3.9-2.7-5.1c-1.5-1.2-3.6-1.8-5.6-1.5c-1.9,0.3-3.7,1.4-4.8,3.1
			c-1.1,1.7-1.5,3.9-0.9,6c0.5,1.7,1.7,3.2,3.2,4.1c1.5,0.9,3.4,1.2,5.1,0.8c1.7-0.4,3.2-1.3,4.2-2.6c1.1-1.3,1.7-2.9,1.8-4.6
			c0-0.1,0-0.1-0.1-0.1c0,0-0.1,0.1-0.1,0.1c0,0.7-0.2,1.4-0.4,2c-0.2,0.6-0.5,1.2-0.9,1.8c-0.4,0.6-0.8,1-1.4,1.5
			c-0.5,0.4-1.1,0.8-1.7,1.1c-1.8,0.8-3.8,0.9-5.6,0.1c-1.8-0.8-3.2-2.3-3.8-4.2c-0.6-2-0.3-4.1,0.7-5.8c1-1.7,2.8-2.8,4.6-3.1
			c2.6-0.4,5.2,0.6,6.9,2.7c0.4,0.5,0.7,1.1,0.9,1.7C738.1,301.7,738.2,302.4,738.3,303C738.3,303,738.3,303,738.3,303
			C738.3,303,738.3,303,738.3,303z"/>
		<path class="st3" d="M737.4,303c-0.2-1.7-1-3.3-2.3-4.3c-1.3-1-3-1.5-4.8-1.3c-1.7,0.2-3.2,1.2-4.1,2.6c-1,1.4-1.3,3.3-0.8,5.2
			c0.4,1.5,1.5,2.8,2.8,3.6c1.4,0.8,3,1,4.4,0.7c1.5-0.3,2.8-1.1,3.7-2.3c0.9-1.1,1.5-2.5,1.5-4c0-0.1,0-0.1-0.1-0.1
			c0,0-0.1,0.1-0.1,0.1c-0.1,2.4-1.6,4.5-3.8,5.5c-1.5,0.7-3.3,0.8-4.9,0.1c-1.6-0.6-2.8-2-3.3-3.6c-0.5-1.7-0.2-3.6,0.7-5
			c0.9-1.4,2.4-2.4,4-2.6c2.2-0.3,4.5,0.5,5.8,2.3c0.3,0.5,0.6,0.9,0.8,1.5C737.2,301.9,737.3,302.4,737.4,303
			C737.3,303,737.4,303,737.4,303C737.4,303,737.4,303,737.4,303z"/>
		<path class="st3" d="M736.4,303c-0.1-1.4-0.9-2.7-2-3.6c-1.1-0.8-2.5-1.2-3.9-1.1c-1.4,0.2-2.7,1-3.5,2.2
			c-0.8,1.2-1.1,2.8-0.7,4.4c0.3,1.3,1.2,2.4,2.4,3.1c1.2,0.6,2.5,0.8,3.8,0.5c1.2-0.3,2.3-1,3.1-2c0.8-1,1.2-2.1,1.3-3.4
			c0-0.1,0-0.1-0.1-0.1c0,0-0.1,0-0.1,0.1c-0.1,2-1.4,3.7-3.2,4.6c-1.3,0.6-2.8,0.7-4.1,0.1c-1.3-0.5-2.4-1.7-2.8-3.1
			c-0.4-1.5-0.2-3,0.6-4.2c0.8-1.2,2-2,3.4-2.1c0.9-0.1,1.8,0,2.7,0.3c0.8,0.3,1.6,0.9,2.2,1.6c0.3,0.4,0.5,0.8,0.7,1.2
			C736.2,302.1,736.3,302.5,736.4,303C736.4,303,736.4,303,736.4,303C736.4,303,736.4,303,736.4,303z"/>
		<path class="st3" d="M735.4,303c-0.2-1.2-0.8-2.2-1.6-2.8c-0.9-0.7-2-1-3.1-0.9c-1.1,0.1-2.2,0.7-2.8,1.7c-0.7,0.9-1,2.3-0.7,3.6
			c0.2,1.1,1,2,2,2.5c1,0.5,2.1,0.7,3.1,0.4c1-0.2,1.9-0.8,2.5-1.6c0.6-0.8,1-1.8,1-2.8c0,0,0-0.1-0.1-0.1c0,0-0.1,0-0.1,0.1
			c-0.1,1.6-1.1,3-2.6,3.8c-1,0.5-2.3,0.6-3.4,0.2c-1.1-0.4-2-1.4-2.3-2.5c-0.3-1.2-0.1-2.5,0.5-3.4c0.6-0.9,1.7-1.5,2.7-1.6
			c0.7-0.1,1.4,0,2.1,0.3c0.7,0.2,1.3,0.7,1.7,1.2c0.2,0.3,0.4,0.6,0.6,1C735.2,302.3,735.3,302.6,735.4,303
			C735.4,303,735.4,303,735.4,303C735.4,303,735.5,303,735.4,303z"/>
		<path class="st5" d="M762.3,316.6H615.7v28h146.6V316.6z"/>
		<path class="st3" d="M645.8,316.6l-10.6,28h-18.9l10.6-28H645.8z"/>
		<path class="st3" d="M684.6,316.6l-10.6,28h-18.9l10.6-28H684.6z"/>
		<path class="st3" d="M723.5,316.6l-10.7,28h-18.9l10.6-28H723.5z"/>
		<path class="st3" d="M762.3,316.6l-10.6,28h-18.9l10.6-28H762.3z"/>
		<path class="st5" d="M759.3,370.5H618.7v17.8h140.7V370.5z"/>
		<path class="st3" d="M647.6,370.5l-10.2,17.7h-18.2l10.2-17.7H647.6z"/>
		<path class="st3" d="M684.8,370.5l-10.2,17.7h-18.2l10.2-17.7H684.8z"/>
		<path class="st3" d="M722,370.5l-10.2,17.7h-18.2l10.2-17.7H722z"/>
		<path class="st3" d="M759.3,370.5l-10.2,17.7h-18.2l10.2-17.7H759.3z"/>
		<path class="st3" d="M906.8,183H793.6c0,0,11.2-30.6,28.5-30.6c17.3,0,22.7,21.2,22.7,21.2S856.4,162,866,162s17.9,15.2,17.9,15.2
			S897.4,169,906.8,183z"/>
		<path class="st3" d="M603.5,111.1h-52.9c0,0,11.8-17.1,21.1-17.1s12.1,11.4,12.1,11.4s6.6-5.3,12.7-4.4
			C602.5,102,603.5,111.1,603.5,111.1z"/>
		<path class="st3" d="M888.8,234.4h-52.9c0,0,11.8-17.1,21.1-17.1s12.1,11.4,12.1,11.4s6.6-5.3,12.7-4.4
			C887.8,225.3,888.8,234.4,888.8,234.4z"/>
		<path class="st3" d="M574.2,154h-103c0,0,14.1-31.5,29.2-33.5s22.3,23.4,22.3,23.4s9.7-9,17.4-9c7.7,0,13.6,11.8,13.6,11.8
			S569,138.7,574.2,154z"/>
		<path class="st7" d="M474.9,404.7l53-0.2l53-0.1l106-0.2l106,0.2l53,0.1l53,0.2l-53,0.2l-53,0.1l-106,0.2L581,405l-53-0.1
			L474.9,404.7z"/>
		<path class="st3" d="M689,483.5c116,0,210.1-11,210.1-24.5S805,434.5,689,434.5c-116,0-210.1,11-210.1,24.5S573,483.5,689,483.5z"
			/>
		<path class="st1" d="M938.5,486.2h-32.7c-23.7,0-38.2-16.4-40.9-46.2c-1.3-14.7-2.1-32.5-2.9-51.3c-2.6-57.8-6.1-137-28.6-137
			h-25.9v-6h25.9c28.2,0,31.5,72.6,34.6,142.8c0.8,18.8,1.6,36.5,2.9,51c1.6,18.6,9,40.7,34.9,40.7h32.7L938.5,486.2L938.5,486.2z"
			/>
		<path class="st8" d="M826.6,245.7l-1.3,6h-17.7v-6H826.6z"/>
		<path class="st1" d="M758.8,212.8h-10.5v73.1h10.5V212.8z"/>
		<path class="st1" d="M748.3,218.2h-39.8v61.5h39.8V218.2z"/>
		<path class="st8" d="M748.3,218.2v61.5h-9.9l-4.4-61.5H748.3z"/>
		<path class="st5" d="M708.6,238.4h-30.5c-2.2,0-3.9-1.8-3.9-3.9v-1.3c0-2.2,1.8-3.9,3.9-3.9h30.5V238.4z"/>
		<path class="st9" d="M708.6,229.3h-10.7v9.2h10.7V229.3z"/>
		<path class="st5" d="M708.6,268.7h-30.5c-2.2,0-3.9-1.8-3.9-3.9v-1.3c0-2.2,1.8-3.9,3.9-3.9h30.5V268.7z"/>
		<path class="st9" d="M708.6,259.5h-10.7v9.2h10.7V259.5z"/>
		<path class="st1" d="M820.6,243.1h-31.1v12.3h31.1V243.1z"/>
		<path class="st1" d="M820.6,243.1h-31.1v12.3h31.1V243.1z"/>
		<path class="st8" d="M800.5,243.1l-1,12.3h-9.9v-12.3H800.5z"/>
		<path class="st1" d="M783.4,277.4h-24.6v-56.9h24.6c3.4,0,6.1,2.8,6.1,6.1v44.6C789.5,274.7,786.8,277.4,783.4,277.4z"/>
		<path class="st8" d="M771.9,220.5l-4.4,56.9h-8.7v-56.9H771.9z"/>
		<g class="st10">
			<path class="st8" d="M769.6,232h-2v33.9h2V232z"/>
			<path class="st8" d="M775.2,232h-2v33.9h2V232z"/>
			<path class="st8" d="M780.7,232h-2v33.9h2V232z"/>
		</g>
		<path class="st1" d="M471.7,486.2H439v-6h32.7c25.9,0,33.3-22.1,34.9-40.7c1.3-14.5,2.1-32.3,2.9-51
			c3.1-70.2,6.3-142.7,34.6-142.7h25.9v6H544c-22.5,0-26,79.2-28.6,137c-0.8,18.8-1.6,36.6-2.9,51.3
			C509.9,469.8,495.4,486.2,471.7,486.2z"/>
		<path class="st8" d="M569.9,245.7v6h-20.6l-1.3-6H569.9z"/>
		<path class="st1" d="M659.7,287.5h11v-77h-11V287.5z"/>
		<path class="st1" d="M659.7,214.1h-41.9V283h41.9V214.1z"/>
		<path class="st8" d="M659.7,214.1V283h-10.4l-4.7-68.9H659.7z"/>
		<path class="st1" d="M554.4,254.8h31.1v-12.3h-31.1V254.8z"/>
		<path class="st1" d="M585.4,242.6h-31.1v12.3h31.1V242.6z"/>
		<path class="st8" d="M574.5,254.8l1-12.3h9.9v12.3H574.5z"/>
		<path class="st1" d="M591.6,219h26.2V279h-26.2c-3.4,0-6.2-2.8-6.2-6.2v-47.6C585.4,221.8,588.2,219,591.6,219z"/>
		<path class="st8" d="M604,278.9l4.7-59.9h9.1v59.9H604z"/>
		<g class="st10">
			<path class="st8" d="M606.4,266.8h2.1v-35.7h-2.1V266.8z"/>
			<path class="st8" d="M600.6,266.8h2.1v-35.7h-2.1V266.8z"/>
			<path class="st8" d="M594.7,266.8h2.1v-35.7h-2.1V266.8z"/>
		</g>
		<path class="st7" d="M689.2,197.6c-0.3,0-0.5-0.2-0.5-0.5V183c0-0.3,0.2-0.5,0.5-0.5c0.3,0,0.5,0.2,0.5,0.5v14.1
			C689.7,197.4,689.4,197.6,689.2,197.6z"/>
		<path class="st7" d="M663.7,204.4c-0.2,0-0.3-0.1-0.4-0.2l-7-12.2c-0.1-0.2-0.1-0.5,0.2-0.7c0.2-0.1,0.5-0.1,0.7,0.2l7,12.2
			c0.1,0.2,0.1,0.5-0.2,0.7C663.9,204.3,663.8,204.4,663.7,204.4z"/>
		<path class="st7" d="M656.4,304.7c-0.1,0-0.2,0-0.2-0.1c-0.2-0.1-0.3-0.4-0.2-0.7l7-12.2c0.1-0.2,0.4-0.3,0.7-0.2
			c0.2,0.1,0.3,0.4,0.2,0.7l-7,12.2C656.7,304.6,656.5,304.7,656.4,304.7z"/>
		<path class="st7" d="M688.8,313.5c-0.3,0-0.5-0.2-0.5-0.5v-14.1c0-0.3,0.2-0.5,0.5-0.5c0.3,0,0.5,0.2,0.5,0.5V313
			C689.3,313.2,689.1,313.5,688.8,313.5z"/>
		<path class="st7" d="M721.3,304.8c-0.2,0-0.3-0.1-0.4-0.2l-7-12.2c-0.1-0.2-0.1-0.5,0.2-0.7c0.2-0.1,0.5-0.1,0.7,0.2l7,12.2
			c0.1,0.2,0.1,0.5-0.2,0.7C721.5,304.8,721.4,304.8,721.3,304.8z"/>
		<path class="st7" d="M714.6,204.5c-0.1,0-0.2,0-0.2-0.1c-0.2-0.1-0.3-0.4-0.2-0.7l7-12.2c0.1-0.2,0.4-0.3,0.7-0.2s0.3,0.4,0.2,0.7
			l-7,12.2C714.9,204.4,714.8,204.5,714.6,204.5z"/>
	</g>
</g>
<g>
	<path class="st11" d="M521.2,597.5h-5.3v-2.7h13.8v2.7h-5.3v15.6h-3.2V597.5z"/>
	<path class="st11" d="M532.5,593.3h3.2v5.1l-0.1,2.7c1.2-1.1,2.5-2.1,4.4-2.1c2.9,0,4.2,2,4.2,5.5v8.6H541v-8.2
		c0-2.3-0.6-3.1-2.1-3.1c-1.2,0-2,0.6-3.1,1.7v9.6h-3.2V593.3z"/>
	<path class="st11" d="M547.4,609.4c0-2.9,2.4-4.5,8.1-5.1c0-1.5-0.6-2.7-2.5-2.7c-1.4,0-2.7,0.6-3.9,1.4l-1.2-2.2
		c1.5-1,3.5-1.8,5.6-1.8c3.4,0,5.1,2.1,5.1,5.9v8.1H556l-0.2-1.5h-0.1c-1.2,1.1-2.6,1.9-4.3,1.9C549,613.4,547.4,611.8,547.4,609.4z
		 M555.4,609.4v-3.1c-3.7,0.5-5,1.4-5,2.8c0,1.2,0.8,1.7,2,1.7C553.6,610.9,554.4,610.3,555.4,609.4z"/>
	<path class="st11" d="M562.5,599.3h2.6l0.2,1.9h0.1c1.2-1.2,2.6-2.2,4.5-2.2c2.9,0,4.2,2,4.2,5.5v8.6H571v-8.2
		c0-2.3-0.6-3.1-2.1-3.1c-1.2,0-2,0.6-3.1,1.7v9.6h-3.2V599.3z"/>
	<path class="st11" d="M578.2,593.3h3.2v12.4h0.1l5.1-6.3h3.5l-4.7,5.6l5.2,8.2h-3.5l-3.5-6l-2.2,2.5v3.5h-3.2V593.3z"/>
	<path class="st11" d="M597.6,618.4l0.6-2.5c0.3,0.1,0.7,0.2,1,0.2c1.4,0,2.3-1,2.7-2.4l0.3-0.9l-5.4-13.6h3.3l2.4,6.7
		c0.4,1.2,0.8,2.6,1.2,3.9h0.1c0.3-1.3,0.7-2.6,1.1-3.9l2-6.7h3.1l-5,14.4c-1.1,3.1-2.6,5-5.6,5
		C598.6,618.7,598.1,618.6,597.6,618.4z"/>
	<path class="st11" d="M611.4,606.2c0-4.6,3.1-7.2,6.5-7.2s6.5,2.6,6.5,7.2c0,4.6-3.1,7.2-6.5,7.2S611.4,610.8,611.4,606.2z
		 M621.2,606.2c0-2.8-1.2-4.6-3.2-4.6s-3.2,1.8-3.2,4.6c0,2.8,1.2,4.6,3.2,4.6S621.2,609,621.2,606.2z"/>
	<path class="st11" d="M627.5,608v-8.6h3.2v8.2c0,2.3,0.6,3.1,2.1,3.1c1.2,0,2-0.6,3-1.9v-9.4h3.2v13.8h-2.6l-0.2-2h-0.1
		c-1.2,1.4-2.5,2.4-4.4,2.4C628.8,613.4,627.5,611.4,627.5,608z"/>
	<path class="st11" d="M647.5,599.5l2-0.1h5.7v2.6h-7.8V599.5z M649.4,597.9c0-2.9,1.3-4.9,4.6-4.9c1,0,1.9,0.2,2.5,0.5l-0.6,2.4
		c-0.5-0.2-1-0.3-1.5-0.3c-1.1,0-1.7,0.7-1.7,2.3v15.2h-3.2V597.9z"/>
	<path class="st11" d="M656.5,606.2c0-4.6,3.1-7.2,6.5-7.2c3.4,0,6.5,2.6,6.5,7.2c0,4.6-3.1,7.2-6.5,7.2
		C659.6,613.4,656.5,610.8,656.5,606.2z M666.3,606.2c0-2.8-1.2-4.6-3.2-4.6c-2,0-3.2,1.8-3.2,4.6c0,2.8,1.2,4.6,3.2,4.6
		C665.1,610.8,666.3,609,666.3,606.2z"/>
	<path class="st11" d="M672.8,599.3h2.6l0.2,2.5h0.1c1-1.8,2.4-2.8,3.9-2.8c0.7,0,1.1,0.1,1.6,0.3l-0.6,2.8
		c-0.5-0.1-0.8-0.2-1.4-0.2c-1.1,0-2.4,0.8-3.2,2.8v8.4h-3.2V599.3z"/>
	<path class="st11" d="M688,618.4l0.6-2.5c0.3,0.1,0.7,0.2,1,0.2c1.4,0,2.3-1,2.7-2.4l0.3-0.9l-5.4-13.6h3.3l2.4,6.7
		c0.4,1.2,0.8,2.6,1.2,3.9h0.1c0.3-1.3,0.7-2.6,1.1-3.9l2-6.7h3.1l-5,14.4c-1.1,3.1-2.6,5-5.6,5C689,618.7,688.5,618.6,688,618.4z"
		/>
	<path class="st11" d="M701.8,606.2c0-4.6,3.1-7.2,6.5-7.2c3.4,0,6.5,2.6,6.5,7.2c0,4.6-3.1,7.2-6.5,7.2
		C704.9,613.4,701.8,610.8,701.8,606.2z M711.6,606.2c0-2.8-1.2-4.6-3.2-4.6c-2,0-3.2,1.8-3.2,4.6c0,2.8,1.2,4.6,3.2,4.6
		C710.4,610.8,711.6,609,711.6,606.2z"/>
	<path class="st11" d="M717.9,608v-8.6h3.2v8.2c0,2.3,0.6,3.1,2.1,3.1c1.2,0,2-0.6,3-1.9v-9.4h3.2v13.8h-2.6l-0.2-2h-0.1
		c-1.2,1.4-2.5,2.4-4.4,2.4C719.2,613.4,717.9,611.4,717.9,608z"/>
	<path class="st11" d="M733.7,599.3h2.6l0.2,2.5h0.1c1-1.8,2.4-2.8,3.9-2.8c0.7,0,1.1,0.1,1.6,0.3l-0.6,2.8
		c-0.5-0.1-0.8-0.2-1.4-0.2c-1.1,0-2.4,0.8-3.2,2.8v8.4h-3.2V599.3z"/>
	<path class="st11" d="M749.7,599.3h2.6l0.2,1.5h0.1c1.2-1,2.6-1.8,4.1-1.8c3.4,0,5.4,2.8,5.4,7c0,4.7-2.8,7.4-5.9,7.4
		c-1.2,0-2.4-0.5-3.5-1.5l0.1,2.3v4.3h-3.2V599.3z M758.9,606c0-2.7-0.9-4.4-3-4.4c-1,0-1.9,0.5-3,1.5v6.4c1,0.8,2,1.1,2.8,1.1
		C757.5,610.8,758.9,609.1,758.9,606z"/>
	<path class="st11" d="M764.3,609.4c0-2.9,2.4-4.5,8.1-5.1c0-1.5-0.6-2.7-2.5-2.7c-1.4,0-2.7,0.6-3.9,1.4l-1.2-2.2
		c1.5-1,3.5-1.8,5.6-1.8c3.4,0,5.1,2.1,5.1,5.9v8.1H773l-0.2-1.5h-0.1c-1.2,1.1-2.6,1.9-4.3,1.9C766,613.4,764.3,611.8,764.3,609.4z
		 M772.4,609.4v-3.1c-3.7,0.5-5,1.4-5,2.8c0,1.2,0.8,1.7,2,1.7C770.5,610.9,771.4,610.3,772.4,609.4z"/>
	<path class="st11" d="M779.7,608.4v-6.6h-2v-2.4l2.1-0.1l0.4-3.8h2.7v3.8h3.5v2.6h-3.5v6.5c0,1.6,0.6,2.4,1.9,2.4
		c0.5,0,1-0.2,1.4-0.3l0.5,2.4c-0.8,0.2-1.7,0.5-2.8,0.5C780.9,613.4,779.7,611.4,779.7,608.4z"/>
	<path class="st11" d="M788.9,595.1c0-1.1,0.9-1.8,2-1.8s2,0.7,2,1.8c0,1.1-0.9,1.8-2,1.8S788.9,596.2,788.9,595.1z M789.3,599.3
		h3.2v13.8h-3.2V599.3z"/>
	<path class="st11" d="M795.7,606.2c0-4.5,3.1-7.2,6.3-7.2c3.7,0,5.7,2.7,5.7,6.5c0,0.6-0.1,1.2-0.1,1.6h-8.7
		c0.3,2.4,1.8,3.8,4.1,3.8c1.2,0,2.2-0.4,3.2-1l1.1,2c-1.3,0.9-3,1.5-4.7,1.5C798.7,613.4,795.7,610.8,795.7,606.2z M805,604.9
		c0-2.1-0.9-3.4-2.8-3.4c-1.6,0-3,1.2-3.3,3.4H805z"/>
	<path class="st11" d="M810.8,599.3h2.6l0.2,1.9h0.1c1.2-1.2,2.6-2.2,4.5-2.2c2.9,0,4.2,2,4.2,5.5v8.6h-3.2v-8.2
		c0-2.3-0.7-3.1-2.1-3.1c-1.2,0-2,0.6-3.1,1.7v9.6h-3.2V599.3z"/>
	<path class="st11" d="M825.6,606.2c0-4.6,3.2-7.2,6.9-7.2c1.7,0,3,0.7,4,1.5l-1.6,2.1c-0.7-0.6-1.4-1-2.3-1c-2.2,0-3.8,1.8-3.8,4.6
		c0,2.8,1.5,4.6,3.7,4.6c1.1,0,2.1-0.5,2.8-1.2l1.3,2.1c-1.3,1.1-2.9,1.7-4.5,1.7C828.5,613.4,825.6,610.8,825.6,606.2z"/>
	<path class="st11" d="M838.1,606.2c0-4.5,3.1-7.2,6.3-7.2c3.7,0,5.7,2.7,5.7,6.5c0,0.6-0.1,1.2-0.1,1.6h-8.7
		c0.3,2.4,1.8,3.8,4.1,3.8c1.2,0,2.2-0.4,3.2-1l1.1,2c-1.3,0.9-3,1.5-4.7,1.5C841.1,613.4,838.1,610.8,838.1,606.2z M847.3,604.9
		c0-2.1-0.9-3.4-2.8-3.4c-1.6,0-3,1.2-3.3,3.4H847.3z"/>
</g>
</svg>
